<svg width="28" height="28" viewBox="0 0 28 28" fill="current" xmlns="http://www.w3.org/2000/svg">
<path d="M14 2C12.4241 2 10.8637 2.3181 9.4078 2.93612C7.95189 3.55415 6.62902 4.46001 5.51472 5.60198C3.26428 7.90829 2 11.0363 2 14.2979C2 19.7336 5.444 24.3453 10.208 25.981C10.808 26.0793 11 25.6981 11 25.3661V23.2877C7.676 24.0256 6.968 21.6398 6.968 21.6398C6.416 20.2132 5.636 19.832 5.636 19.832C4.544 19.0695 5.72 19.0941 5.72 19.0941C6.92 19.1802 7.556 20.3608 7.556 20.3608C8.6 22.2301 10.364 21.6767 11.048 21.3815C11.156 20.5822 11.468 20.0411 11.804 19.7336C9.14 19.4262 6.344 18.3685 6.344 13.683C6.344 12.318 6.8 11.2234 7.58 10.3503C7.46 10.0428 7.04 8.76386 7.7 7.10364C7.7 7.10364 8.708 6.77159 11 8.35803C11.948 8.08747 12.98 7.9522 14 7.9522C15.02 7.9522 16.052 8.08747 17 8.35803C19.292 6.77159 20.3 7.10364 20.3 7.10364C20.96 8.76386 20.54 10.0428 20.42 10.3503C21.2 11.2234 21.656 12.318 21.656 13.683C21.656 18.3808 18.848 19.4139 16.172 19.7213C16.604 20.1025 17 20.8527 17 21.9964V25.3661C17 25.6981 17.192 26.0916 17.804 25.981C22.568 24.333 26 19.7336 26 14.2979C26 12.6829 25.6896 11.0838 25.0866 9.59171C24.4835 8.09966 23.5996 6.74395 22.4853 5.60198C21.371 4.46001 20.0481 3.55415 18.5922 2.93612C17.1363 2.3181 15.5759 2 14 2Z" fill="current"/>
</svg>
