<svg width="42" height="42" viewBox="0 0 42 42" fill="none" xmlns="http://www.w3.org/2000/svg">
<path d="M18.3001 18.3091C16.8141 18.3091 19.3478 0.106476 13.0124 2.16182C6.98877 4.11599 15.4114 18.3091 13.9961 18.3091C12.5808 18.3091 2.68872 17.4918 2.03016 21.9422C1.29466 26.9125 14.2533 24.1305 14.6394 24.768C15.0254 25.4056 9.55136 32.9543 13.0124 35.2638C16.5979 37.6563 21.1763 28.8048 21.9608 28.8048C22.7454 28.8048 26.8001 43.3054 30.0958 39.3006C32.7742 36.0458 26.3894 28.8048 27.6553 28.8048C28.9212 28.8048 38.3655 29.5405 39.8578 24.768C41.6815 18.9355 25.383 23.1004 24.4013 21.9422C23.4197 20.7841 32.2575 11.4875 27.6553 9.02442C23.1113 6.59247 19.7861 18.3091 18.3001 18.3091Z" stroke="current" stroke-width="3" stroke-linecap="round" vector-effect="non-scaling-stroke"/>
</svg>
