<svg width="191" height="191" viewBox="0 0 191 191" fill="none" xmlns="http://www.w3.org/2000/svg">
<path d="M98.0423 3.11329L104.525 13.9839C106.284 16.9336 110.286 17.5675 112.871 15.3057L122.396 6.97051C123.82 5.72374 126.06 6.45146 126.48 8.29752L129.286 20.6394C130.048 23.9883 133.658 25.8279 136.815 24.4756L148.45 19.4916C150.19 18.7461 152.095 20.1303 151.924 22.0157L150.779 34.6208C150.468 38.0411 153.334 40.9064 156.754 40.5957L169.359 39.4509C171.244 39.2797 172.628 41.1849 171.883 42.9251L166.899 54.5594C165.547 57.7163 167.386 61.3268 170.735 62.0883L183.077 64.8947C184.923 65.3145 185.651 67.5541 184.404 68.9788L176.069 78.5036C173.807 81.0881 174.441 85.0903 177.391 86.8494L188.261 93.3323C189.887 94.302 189.887 96.657 188.261 97.6266L177.391 104.11C174.441 105.869 173.807 109.871 176.069 112.455L184.404 121.98C185.651 123.405 184.923 125.645 183.077 126.064L170.735 128.871C167.386 129.632 165.547 133.243 166.899 136.4L171.883 148.034C172.628 149.774 171.244 151.679 169.359 151.508L156.754 150.363C153.334 150.053 150.468 152.918 150.779 156.338L151.924 168.943C152.095 170.829 150.19 172.213 148.45 171.467L136.815 166.483C133.658 165.131 130.048 166.971 129.286 170.32L126.48 182.661C126.06 184.507 123.82 185.235 122.396 183.988L112.871 175.653C110.286 173.392 106.284 174.025 104.525 176.975L98.0423 187.846C97.0726 189.472 94.7177 189.472 93.748 187.846L87.2651 176.975C85.506 174.025 81.5038 173.392 78.9193 175.653L69.3945 183.988C67.9698 185.235 65.7301 184.507 65.3103 182.661L62.5039 170.32C61.7424 166.971 58.132 165.131 54.9751 166.483L43.3407 171.467C41.6005 172.213 39.6953 170.829 39.8666 168.943L41.0114 156.338C41.322 152.918 38.4567 150.053 35.0364 150.363L22.4314 151.508C20.546 151.679 19.1618 149.774 19.9072 148.034L24.8912 136.4C26.2436 133.243 24.4039 129.632 21.0551 128.871L8.71318 126.064C6.86711 125.645 6.13939 123.405 7.38615 121.98L15.7214 112.455C17.9831 109.871 17.3492 105.869 14.3995 104.11L3.52895 97.6266C1.90295 96.657 1.90295 94.302 3.52894 93.3323L14.3995 86.8494C17.3492 85.0903 17.9831 81.0881 15.7214 78.5036L7.38616 68.9788C6.13939 67.5541 6.86711 65.3145 8.71317 64.8947L21.0551 62.0883C24.4039 61.3268 26.2436 57.7163 24.8912 54.5594L19.9072 42.9251C19.1618 41.1849 20.546 39.2797 22.4314 39.4509L35.0364 40.5957C38.4567 40.9064 41.322 38.0411 41.0114 34.6208L39.8666 22.0157C39.6953 20.1303 41.6005 18.7461 43.3407 19.4916L54.9751 24.4755C58.132 25.8279 61.7424 23.9883 62.5039 20.6394L65.3103 8.29753C65.7301 6.45146 67.9698 5.72374 69.3945 6.9705L78.9193 15.3057C81.5038 17.5674 85.506 16.9336 87.2651 13.9839L93.748 3.1133C94.7177 1.4873 97.0726 1.4873 98.0423 3.11329Z" stroke="#F1D629" stroke-width="3"/>
</svg>
