<svg width="98" height="98" viewBox="0 0 98 98" fill="none" xmlns="http://www.w3.org/2000/svg">
<path d="M47.791 0.646431C48.3904 -0.169793 49.6096 -0.169793 50.209 0.646431L53.4535 5.06462C53.9622 5.75736 54.9477 5.88187 55.6127 5.3374L59.854 1.86487C60.6375 1.22335 61.8185 1.52658 62.1961 2.46622L64.2398 7.55246C64.5603 8.34994 65.4839 8.71564 66.2634 8.35366L71.235 6.04499C72.1535 5.61848 73.222 6.20588 73.354 7.2099L74.0686 12.6446C74.1807 13.4967 74.9844 14.0806 75.8294 13.9239L81.2189 12.9241C82.2146 12.7394 83.1035 13.5741 82.9816 14.5794L82.3223 20.0211C82.2189 20.8743 82.8521 21.6397 83.7096 21.6981L89.1784 22.07C90.1888 22.1388 90.8421 23.1683 90.4741 24.1117L88.4822 29.2184C88.1698 30.0191 88.5928 30.918 89.4088 31.1877L94.6134 32.9081C95.5749 33.2259 95.9516 34.3855 95.3606 35.2078L92.1612 39.6587C91.6596 40.3566 91.8457 41.3324 92.569 41.7966L97.1822 44.7572C98.0345 45.3042 98.111 46.521 97.3341 47.1705L93.1283 50.6859C92.4689 51.2371 92.4065 52.2286 92.9917 52.8581L96.7236 56.8729C97.4131 57.6146 97.1846 58.8124 96.2705 59.2482L91.3227 61.6072C90.5469 61.9771 90.2399 62.9219 90.6501 63.6772L93.2664 68.494C93.7497 69.3839 93.2306 70.4871 92.2368 70.6819L86.8577 71.7364C86.0143 71.9017 85.482 72.7405 85.6915 73.574L87.0277 78.8902C87.2746 79.8723 86.4974 80.8117 85.4864 80.7533L80.0141 80.4369C79.156 80.3873 78.4319 81.0674 78.4275 81.9268L78.3996 87.4082C78.3945 88.4209 77.4081 89.1375 76.4434 88.8295L71.2216 87.1621C70.4029 86.9007 69.5324 87.3793 69.3144 88.2107L67.9243 93.5129C67.6674 94.4925 66.5338 94.9413 65.676 94.4031L61.033 91.4895C60.305 91.0327 59.3428 91.2797 58.9249 92.0308L56.2598 96.8208C55.7675 97.7057 54.5578 97.8585 53.8608 97.1238L50.0882 93.1471C49.4967 92.5236 48.5033 92.5236 47.9118 93.1471L44.1392 97.1238C43.4422 97.8585 42.2325 97.7057 41.7402 96.8208L39.0751 92.0308C38.6572 91.2797 37.695 91.0327 36.967 91.4895L32.324 94.4031C31.4662 94.9413 30.3326 94.4925 30.0757 93.5129L28.6856 88.2107C28.4676 87.3793 27.5971 86.9007 26.7784 87.1621L21.5566 88.8295C20.5919 89.1375 19.6055 88.4209 19.6004 87.4082L19.5725 81.9268C19.5681 81.0674 18.844 80.3873 17.9859 80.4369L12.5136 80.7533C11.5026 80.8117 10.7254 79.8723 10.9723 78.8902L12.3085 73.574C12.518 72.7405 11.9857 71.9017 11.1423 71.7364L5.76316 70.6819C4.76942 70.4871 4.25027 69.3839 4.7336 68.494L7.34989 63.6772C7.7601 62.9219 7.45312 61.9771 6.67733 61.6072L1.72946 59.2482C0.815377 58.8123 0.586904 57.6146 1.27636 56.8729L5.00834 52.8581C5.59349 52.2286 5.53111 51.2371 4.87168 50.6859L0.665931 47.1705C-0.111047 46.521 -0.0344875 45.3042 0.817761 44.7572L5.43095 41.7966C6.15426 41.3324 6.34041 40.3566 5.83878 39.6587L2.63941 35.2078C2.04836 34.3855 2.42514 33.2259 3.38663 32.9081L8.59117 31.1877C9.40719 30.918 9.83017 30.0191 9.51785 29.2184L7.5259 24.1117C7.1579 23.1683 7.81124 22.1388 8.82156 22.07L14.2904 21.6981C15.1479 21.6397 15.7811 20.8743 15.6777 20.0211L15.0184 14.5794C14.8965 13.5741 15.7854 12.7394 16.781 12.9241L22.1706 13.9239C23.0156 14.0806 23.8193 13.4967 23.9314 12.6446L24.646 7.2099C24.778 6.20588 25.8465 5.61848 26.765 6.04499L31.7366 8.35366C32.5161 8.71564 33.4397 8.34994 33.7602 7.55246L35.8039 2.46622C36.1815 1.52658 37.3625 1.22335 38.146 1.86487L42.3873 5.3374C43.0523 5.88187 44.0378 5.75736 44.5465 5.06462L47.791 0.646431Z" fill="black"/>
</svg>
